<?xml version="1.0" standalone="no"?>
<!DOCTYPE svg PUBLIC "-//W3C//DTD SVG 20010904//EN"
 "http://www.w3.org/TR/2001/REC-SVG-20010904/DTD/svg10.dtd">
<svg version="1.0" xmlns="http://www.w3.org/2000/svg"
 width="1875.000000pt" height="485.000000pt" viewBox="0 0 1875.000000 485.000000"
 preserveAspectRatio="xMidYMid meet">
<metadata>
Created by potrace 1.16, written by Peter Selinger 2001-2019
</metadata>
<g transform="translate(0.000000,485.000000) scale(0.100000,-0.100000)"
fill="#000000" stroke="none">
<path d="M3365 4844 c-1155 -32 -2210 -432 -2825 -1070 -288 -299 -461 -622
-521 -975 -19 -111 -21 -152 -16 -379 3 -169 10 -282 20 -335 86 -449 285
-809 633 -1145 202 -196 424 -352 699 -492 450 -229 942 -370 1515 -433 195
-21 1090 -21 1280 0 613 70 1155 230 1593 471 666 366 1113 919 1236 1529 49
245 55 614 12 828 -69 345 -248 662 -536 953 -541 545 -1402 915 -2370 1018
-202 22 -526 35 -720 30z m615 -154 c769 -76 1439 -295 1959 -641 l142 -94
-43 -18 c-97 -42 -341 -118 -463 -144 -119 -25 -149 -27 -350 -27 -169 -1
-241 3 -310 17 -138 26 -268 65 -400 120 -66 27 -163 67 -215 89 -211 88 -423
131 -640 131 -299 -1 -521 -65 -743 -216 -97 -66 -99 -67 -190 -77 -51 -6
-180 -34 -287 -62 -191 -51 -198 -52 -335 -52 -152 0 -214 11 -523 95 -179 49
-572 178 -572 188 0 4 35 30 78 58 556 363 1272 585 2072 643 152 11 675 5
820 -10z m-35 -740 c122 -27 259 -74 380 -127 465 -207 848 -257 1291 -168
192 39 354 92 582 192 15 6 204 -177 297 -287 84 -100 163 -220 225 -340 54
-107 127 -311 132 -373 l3 -38 -230 -59 c-385 -98 -701 -200 -1025 -332 -107
-44 -200 -80 -207 -81 -6 -1 -184 147 -395 329 -931 805 -1048 896 -1215 939
-178 46 -349 -9 -584 -187 -67 -51 -164 -126 -216 -165 -165 -126 -274 -163
-420 -142 -74 10 -156 46 -161 70 -4 19 305 354 430 468 209 189 383 278 616
316 123 20 377 13 497 -15z m-2735 -176 c262 -89 538 -164 697 -190 54 -8 152
-15 218 -16 110 0 135 4 300 47 99 25 189 49 200 52 11 3 -23 -39 -75 -93
-166 -174 -280 -303 -290 -330 -52 -135 85 -250 325 -273 189 -18 296 19 496
172 297 226 415 297 532 318 110 20 228 -25 387 -145 190 -143 1311 -1107
1348 -1159 53 -75 53 -153 -1 -214 -63 -72 -181 -103 -262 -69 -19 8 -126 97
-237 198 -311 281 -344 308 -378 308 -37 0 -56 -30 -39 -62 6 -13 121 -133
255 -268 156 -157 249 -258 258 -282 34 -81 -21 -182 -129 -236 -58 -28 -107
-34 -162 -21 -42 11 -67 32 -218 177 -216 210 -258 244 -299 240 -26 -3 -31
-8 -34 -33 -2 -26 20 -56 181 -236 101 -114 187 -214 190 -224 4 -9 7 -32 7
-51 0 -45 -66 -114 -126 -132 -51 -15 -128 -16 -157 -1 -12 6 -71 59 -132 118
-189 184 -234 221 -272 221 -37 0 -49 -16 -39 -53 3 -12 47 -67 97 -122 209
-230 204 -223 184 -245 -10 -11 -43 -28 -74 -36 -73 -22 -157 -13 -260 26
l-80 31 13 37 c45 129 16 292 -72 397 -64 78 -198 145 -288 145 l-34 0 0 54
c0 140 -74 258 -198 318 -55 26 -82 33 -154 36 -48 2 -100 0 -117 -6 -21 -7
-31 -8 -31 -1 0 25 -104 118 -163 145 -56 26 -72 29 -172 29 -99 0 -116 -3
-169 -27 l-58 -28 -36 31 c-20 18 -61 44 -92 58 -46 22 -69 26 -140 25 -90 0
-134 -13 -202 -60 l-37 -26 -58 35 c-255 153 -623 284 -1204 426 -113 28 -215
54 -226 58 l-21 8 20 75 c79 306 287 625 573 880 l109 98 51 -21 c27 -11 160
-58 295 -103z m-851 -1140 c487 -113 830 -226 1083 -356 137 -70 149 -80 137
-121 -5 -17 -9 -62 -9 -99 0 -185 133 -325 321 -336 l78 -5 16 -47 c51 -152
210 -266 371 -265 71 1 72 0 90 -32 26 -50 107 -121 172 -151 50 -23 70 -27
157 -27 l100 0 40 -60 c22 -33 63 -77 90 -98 139 -105 355 -102 500 8 l35 27
82 -35 c164 -70 324 -76 443 -18 35 18 74 44 85 59 21 26 25 27 123 27 92 0
108 3 160 30 99 49 177 130 196 202 7 25 10 27 57 24 63 -3 133 13 200 46 111
54 176 132 202 242 l16 69 86 4 c98 5 164 31 237 93 90 76 125 220 85 340 -11
33 -19 61 -18 62 1 2 83 34 182 72 346 133 791 267 1175 355 26 6 27 4 32 -47
9 -87 -12 -280 -42 -401 -218 -863 -1246 -1563 -2577 -1755 -284 -41 -361 -46
-759 -46 -426 1 -539 9 -873 65 -994 168 -1834 635 -2234 1244 -117 178 -210
404 -242 588 -30 173 -32 388 -4 388 6 0 99 -21 207 -46z m1629 -380 c75 -31
131 -111 132 -186 0 -47 12 -48 39 -5 50 81 142 139 231 145 138 10 237 -62
258 -190 10 -56 36 -61 89 -19 120 95 315 34 358 -113 20 -65 19 -87 -6 -185
-27 -105 -22 -111 65 -88 35 9 84 17 108 17 85 0 184 -67 231 -155 32 -59 30
-164 -3 -228 -65 -129 -216 -184 -347 -127 -90 39 -149 121 -162 225 -5 42
-10 51 -28 53 -13 2 -37 -8 -56 -22 -84 -64 -138 -67 -241 -13 -76 40 -108 88
-114 169 -3 37 -10 62 -18 65 -7 3 -41 -9 -75 -26 -79 -39 -119 -39 -197 0
-106 53 -152 132 -152 264 0 89 -11 103 -56 69 -52 -40 -116 -56 -176 -43
-106 23 -186 146 -159 246 34 126 165 195 279 147z"/>
<path d="M17017 4655 c-80 -22 -159 -66 -209 -116 l-48 -48 0 -251 0 -252 -35
42 c-121 145 -293 197 -512 155 -220 -42 -365 -188 -430 -432 -22 -84 -26
-125 -30 -288 -4 -165 -2 -203 16 -290 43 -210 147 -354 311 -432 99 -47 145
-59 273 -73 106 -11 268 0 361 25 236 63 379 231 415 489 7 49 11 335 11 782
l0 704 -37 -1 c-21 0 -60 -7 -86 -14z m-442 -824 c123 -54 194 -229 181 -451
-13 -239 -110 -371 -283 -387 -170 -15 -291 92 -322 287 -22 134 -6 306 37
404 23 52 84 121 125 142 69 36 185 38 262 5z"/>
<path d="M13295 4194 c-38 -8 -113 -36 -165 -61 -80 -38 -108 -59 -175 -127
-159 -161 -223 -351 -212 -628 5 -151 24 -226 88 -348 87 -167 231 -279 434
-337 70 -20 265 -28 351 -14 209 32 363 126 463 281 43 65 87 185 97 263 l7
47 -197 0 c-149 0 -197 -3 -200 -12 -34 -132 -78 -199 -157 -243 -49 -27 -62
-30 -149 -30 -112 0 -151 16 -218 89 -75 81 -112 201 -112 361 0 164 41 287
124 373 56 59 108 84 187 90 155 11 279 -74 304 -211 l7 -37 203 0 203 0 -5
43 c-8 77 -42 172 -81 232 -123 189 -333 286 -615 284 -62 0 -143 -7 -182 -15z"/>
<path d="M14730 4196 c-159 -34 -271 -109 -329 -223 -26 -52 -51 -151 -51
-202 l0 -41 179 0 179 0 6 25 c9 35 62 93 110 118 33 17 58 21 126 21 105 0
160 -15 199 -55 66 -66 23 -149 -96 -182 -32 -9 -114 -24 -183 -33 -366 -47
-526 -164 -562 -412 -47 -322 167 -543 524 -542 404 1 657 165 713 463 11 59
15 157 15 396 0 357 -6 400 -65 487 -57 82 -131 128 -270 166 -93 26 -398 34
-495 14z m458 -878 c-6 -129 -30 -190 -100 -253 -59 -53 -128 -78 -218 -79
-88 0 -137 24 -167 84 -40 78 -25 161 38 214 48 41 84 54 238 86 75 16 147 33
161 39 52 21 53 19 48 -91z"/>
<path d="M17805 4194 c-267 -59 -460 -241 -535 -504 -27 -97 -37 -286 -21
-401 15 -103 64 -235 114 -311 53 -80 160 -177 242 -220 102 -53 200 -78 336
-85 386 -19 657 148 772 474 28 82 31 100 35 255 3 132 1 183 -13 242 -50 226
-172 389 -359 481 -50 25 -118 52 -151 61 -87 24 -329 28 -420 8z m338 -328
c137 -66 200 -206 200 -436 0 -213 -69 -357 -202 -422 -39 -19 -62 -23 -146
-23 -89 0 -106 3 -151 27 -135 71 -203 237 -191 468 11 218 87 351 232 403 74
26 185 19 258 -17z"/>
<path d="M8495 4186 c-244 -47 -384 -180 -441 -416 -15 -65 -18 -139 -22 -577
l-4 -503 196 0 196 0 0 480 c0 313 4 497 11 531 22 103 106 159 240 159 81 0
143 -21 186 -62 62 -60 63 -69 63 -615 l0 -493 195 0 195 0 0 503 c0 467 2
505 19 542 38 83 105 118 226 118 123 0 187 -34 229 -123 20 -43 21 -63 26
-497 5 -436 6 -453 26 -480 38 -53 85 -67 227 -71 l128 -4 -3 538 -3 539 -27
77 c-49 145 -125 234 -251 294 -100 47 -188 64 -344 64 -166 0 -265 -18 -366
-68 l-79 -39 -76 39 c-43 21 -104 45 -137 54 -83 22 -319 28 -410 10z"/>
<path d="M10852 4180 c-189 -50 -368 -193 -451 -360 -64 -131 -84 -220 -84
-380 0 -105 4 -154 21 -222 64 -262 221 -431 472 -510 67 -21 94 -23 250 -23
162 1 181 3 255 28 147 49 244 120 320 237 44 66 95 177 95 205 0 13 -25 15
-180 15 -155 0 -180 -2 -180 -15 0 -28 -82 -105 -144 -134 -76 -37 -146 -46
-234 -31 -160 27 -244 121 -268 301 l-7 49 523 0 523 0 -6 128 c-5 132 -26
232 -68 327 -87 197 -257 344 -449 389 -94 23 -295 20 -388 -4z m336 -317 c29
-13 63 -39 77 -57 29 -38 71 -128 80 -173 l7 -33 -317 0 -316 0 7 38 c36 207
265 319 462 225z"/>
<path d="M12458 4189 c-227 -33 -398 -149 -486 -329 -82 -168 -92 -250 -92
-772 l0 -408 195 0 194 0 3 448 3 447 28 60 c35 74 58 100 122 133 45 23 64
26 188 30 l137 4 0 199 0 199 -117 -1 c-65 -1 -144 -5 -175 -10z"/>
<path d="M8534 2155 c-211 -38 -353 -136 -429 -297 -67 -141 -67 -144 -72
-844 l-5 -632 24 -28 c80 -98 167 -143 288 -151 l80 -6 0 321 0 321 57 -60
c39 -41 80 -71 131 -96 70 -35 80 -37 190 -41 141 -5 223 12 324 64 177 94
274 282 300 583 18 219 -7 400 -76 546 -67 142 -178 240 -327 289 -139 46
-334 59 -485 31z m339 -349 c88 -51 138 -149 158 -307 17 -142 -9 -297 -66
-394 -51 -89 -143 -131 -263 -123 -186 14 -282 164 -282 443 0 209 59 339 180
395 38 17 60 20 135 17 78 -2 98 -7 138 -31z"/>
<path d="M10065 2156 c-242 -48 -369 -182 -392 -413 l-6 -63 179 0 179 0 18
45 c36 87 111 128 232 127 146 0 225 -43 225 -120 0 -33 -6 -45 -34 -70 -45
-40 -106 -58 -253 -77 -390 -50 -548 -163 -583 -419 -15 -102 1 -202 45 -293
58 -119 160 -193 312 -229 95 -22 336 -14 447 15 242 64 387 206 432 423 12
58 15 141 12 428 l-3 355 -28 57 c-54 110 -149 178 -305 219 -101 27 -373 35
-477 15z m443 -883 c-8 -164 -49 -238 -164 -294 -57 -28 -76 -33 -147 -33 -60
-1 -91 4 -114 16 -78 43 -104 165 -51 245 37 57 104 86 273 122 77 16 151 34
165 39 14 6 29 11 34 11 5 1 6 -47 4 -106z"/>
<path d="M11605 2160 c-92 -15 -204 -56 -272 -101 -121 -79 -202 -202 -245
-374 -32 -128 -32 -413 0 -559 69 -319 265 -486 572 -486 161 0 261 40 357
144 l55 60 -4 -120 c-3 -100 -7 -126 -27 -164 -37 -72 -85 -123 -142 -155 -48
-27 -63 -30 -139 -30 -73 0 -93 4 -143 29 -68 33 -110 84 -133 163 l-15 53
-201 0 -200 0 7 -56 c32 -260 231 -443 539 -495 88 -15 291 -6 371 16 192 53
371 202 438 365 22 55 22 56 22 650 l0 595 -27 81 c-67 195 -193 312 -397 366
-88 23 -318 33 -416 18z m257 -330 c95 -27 168 -123 193 -255 41 -211 -7 -444
-108 -531 -99 -84 -269 -86 -370 -3 -88 72 -140 268 -120 448 22 192 83 295
200 337 46 16 154 18 205 4z"/>
<path d="M13238 2160 c-133 -24 -250 -76 -349 -155 -108 -86 -192 -225 -231
-382 -30 -123 -30 -342 1 -458 54 -206 182 -370 351 -453 134 -66 189 -77 380
-77 190 0 247 11 375 75 181 89 296 232 357 445 19 68 23 103 23 240 -1 189
-14 252 -82 394 -81 170 -235 294 -433 351 -84 24 -308 36 -392 20z m289 -330
c62 -26 136 -101 164 -165 66 -149 62 -410 -7 -547 -59 -116 -140 -169 -269
-176 -93 -5 -143 6 -207 47 -120 76 -185 278 -159 497 18 155 67 254 158 318
85 59 218 70 320 26z"/>
</g>
</svg>
